<svg width="128" height="128" viewBox="0 0 128 128" fill="none" xmlns="http://www.w3.org/2000/svg">
<rect width="128" height="128" fill="#334155"/>
<path fill-rule="evenodd" clip-rule="evenodd" d="M48.7375 30.5125C48.4816 30.4874 48.2253 30.4666 47.9687 30.45C47.4675 28.4536 46.3104 26.6834 44.683 25.4231C43.0555 24.1629 41.052 23.4856 38.9938 23.5V31.6688C34.2553 33.552 30.0623 36.5891 26.7956 40.5042C23.5288 44.4193 21.2918 49.0884 20.2875 54.0875V56.525C23.1563 61.75 32.2 63.5875 33.75 63.9C33.9188 63.9375 34 63.9563 33.9688 63.9563C18.85 65.9563 20.2813 78.0125 20.2813 78.0125C20.3922 79.5931 21.0993 81.0726 22.2596 82.1517C23.4199 83.2308 24.9467 83.8289 26.5313 83.825C28.2313 83.7063 29.8938 83.325 31.4688 82.7H44.3437C43.2277 84.6328 42.4658 86.7494 42.0937 88.95H40.0938C36.3141 89.5196 32.8651 91.4286 30.3755 94.3289C27.8859 97.2292 26.5216 100.928 26.5313 104.75C26.4787 105.11 26.5013 105.476 26.5977 105.826C26.6941 106.177 26.8622 106.503 27.0913 106.785C27.3204 107.067 27.6056 107.299 27.9288 107.465C28.252 107.631 28.6061 107.728 28.9688 107.75H70.7C74.0946 107.922 77.4861 107.356 80.6407 106.091C83.7953 104.825 86.6378 102.891 88.9722 100.42C91.3066 97.9497 93.0774 95.0023 94.1622 91.7811C95.2471 88.56 95.6204 85.1419 95.2562 81.7625C95.0887 77.0271 93.4503 72.4615 90.5687 68.7L89.8812 67.825C87.1937 64.3875 85.6312 62.1438 86.4437 59.7688C87.2562 57.3938 88.725 57.2688 88.725 57.2688C88.725 57.2688 89.8812 57.0813 91.5687 57.8313C92.9437 58.6313 94.4437 59.2063 96.0062 59.5188C98.1873 59.9328 100.444 59.5998 102.413 58.5736C104.381 57.5473 105.947 55.8877 106.856 53.8625C107.45 52.5625 107.75 51.1438 107.75 49.7125C107.787 45.225 105.687 40.6188 103.219 36.6625C100.754 32.7082 97.4351 29.3555 93.5062 26.85C88.457 24.1518 82.6345 23.2693 77.0125 24.35C73.0314 25.0502 69.3762 26.9983 66.575 29.9125C64.3416 32.3472 62.6784 35.2486 61.7062 38.4063C60.5612 36.7053 59.2278 35.1392 57.7313 33.7375V32.7438C57.7466 30.3306 56.8118 28.0082 55.1289 26.2786C53.446 24.5489 51.1502 23.5508 48.7375 23.5V30.5125ZM81.8875 85.1312C82.5812 89.7625 83.2625 96.5125 76.4687 100.394C74.6187 101.038 72.6687 101.394 70.7 101.438H34.0937C34.0887 99.863 34.6781 98.3446 35.7441 97.1859C36.8102 96.0271 38.2743 95.3135 39.8438 95.1875H47.8375V92.0688C47.7732 89.2067 48.8085 86.4289 50.7303 84.307C52.6522 82.1852 55.3143 80.8809 58.1687 80.6625L54.2562 75.1188C52.7812 75.5375 51.3625 76.075 50.65 76.575H30.5938C30.0217 76.6192 29.4625 76.7674 28.9438 77.0125C28.0813 77.3563 27.2313 77.6938 26.4688 77.2C25.2188 76.3875 27.1563 70.2 32.7813 70.2H39.0313C42.0938 70.2 42.5937 66.825 42.5937 66.825L44.3437 59.7688C41.1278 60.2309 37.8486 59.9471 34.7598 58.9392C31.6711 57.9313 28.8556 56.2263 26.5313 53.9563C27.5276 49.4181 29.9884 45.3334 33.5347 42.3315C37.081 39.3296 41.5159 37.577 46.1562 37.3438L46.675 37.3563C48.3 37.4063 49.3938 37.4438 51.525 38.4063C57.3375 41.0313 64.9562 53.8375 64.9562 53.8375L65.3312 54.4H66.3938V53.9625C66.0188 51.1938 66.2687 44.8125 67.1187 42.15C67.975 39.5 69.4125 37.0625 71.325 35.025C73.5281 32.8253 76.3735 31.383 79.45 30.9063C83.416 30.0608 87.5546 30.7061 91.075 32.7188C93.95 34.4938 96.3875 36.9063 98.1937 39.7625C100 42.6188 101.169 44.9875 101.537 48.35C101.531 48.475 101.537 48.6438 101.55 48.8563C101.594 49.75 101.675 51.2938 100.75 52.275C99.9562 53.1188 97.95 53.7125 96.5625 53.4C95.5724 53.1728 94.6236 52.7933 93.75 52.275C92.6991 51.6173 91.5144 51.203 90.2827 51.0624C89.0509 50.9218 87.8033 51.0585 86.6312 51.4625C85.2036 51.9229 83.9159 52.7376 82.8885 53.8306C81.8611 54.9236 81.1275 56.2591 80.7562 57.7125C80.1304 60.1896 80.1707 62.7882 80.8732 65.2447C81.5757 67.7013 82.9153 69.9283 84.7562 71.7L85.4437 72.575C87.6125 75.2875 88.8562 78.6125 89.0062 82.075C89.1108 85.1559 88.4539 88.2149 87.0937 90.9813C86.8494 88.0592 85.8501 85.2508 84.1937 82.8312L81.8812 85.1312H81.8875ZM40.5 45.25C39.6712 45.25 38.8763 45.5792 38.2903 46.1653C37.7042 46.7513 37.375 47.5462 37.375 48.375C37.375 49.2038 37.7042 49.9987 38.2903 50.5847C38.8763 51.1708 39.6712 51.5 40.5 51.5C41.3288 51.5 42.1237 51.1708 42.7097 50.5847C43.2958 49.9987 43.625 49.2038 43.625 48.375C43.625 47.5462 43.2958 46.7513 42.7097 46.1653C42.1237 45.5792 41.3288 45.25 40.5 45.25Z" fill="white"/>
</svg>
